<svg width="442" height="265" viewBox="0 0 442 265" fill="none" xmlns="http://www.w3.org/2000/svg">
<g opacity="0.2">
<path d="M96.8663 200.377L113.603 163.765H117.421L134.159 200.377H130.079L114.702 166.014H116.271L100.894 200.377H96.8663ZM103.457 190.596L104.607 187.458H125.895L127.045 190.596H103.457ZM160.73 200.638C158.394 200.638 156.354 200.203 154.611 199.331C152.867 198.459 151.507 197.152 150.531 195.408C149.59 193.665 149.119 191.485 149.119 188.87V172.918H152.832V188.452C152.832 191.381 153.547 193.595 154.977 195.094C156.441 196.559 158.481 197.291 161.096 197.291C163.014 197.291 164.67 196.908 166.065 196.14C167.495 195.338 168.576 194.188 169.308 192.688C170.075 191.189 170.459 189.393 170.459 187.301V172.918H174.172V200.377H170.616V192.845L171.191 194.205C170.319 196.228 168.959 197.814 167.111 198.965C165.298 200.081 163.171 200.638 160.73 200.638ZM203.665 200.638C201.084 200.638 199.097 199.941 197.702 198.546C196.307 197.152 195.61 195.181 195.61 192.636V166.851H199.323V192.427C199.323 194.031 199.724 195.269 200.526 196.14C201.363 197.012 202.549 197.448 204.083 197.448C205.722 197.448 207.082 196.977 208.163 196.036L209.47 198.703C208.738 199.366 207.849 199.854 206.803 200.168C205.792 200.482 204.746 200.638 203.665 200.638ZM190.693 176.004V172.918H207.692V176.004H190.693ZM240.708 172.656C242.94 172.656 244.893 173.092 246.566 173.964C248.275 174.801 249.6 176.091 250.541 177.834C251.518 179.578 252.006 181.774 252.006 184.424V200.377H248.292V184.791C248.292 181.896 247.56 179.717 246.096 178.253C244.666 176.753 242.644 176.004 240.028 176.004C238.076 176.004 236.367 176.405 234.903 177.207C233.473 177.974 232.357 179.107 231.555 180.606C230.788 182.071 230.405 183.849 230.405 185.941V200.377H226.691V161.568H230.405V180.449L229.672 179.037C230.544 177.05 231.939 175.498 233.857 174.382C235.774 173.232 238.058 172.656 240.708 172.656ZM281.598 200.377L269.255 163.765H273.23L284.789 198.233H282.801L294.726 163.765H298.283L310.051 198.233H308.168L319.832 163.765H323.545L311.202 200.377H307.122L295.877 167.687H296.923L285.625 200.377H281.598ZM340.165 200.377V172.918H343.878V200.377H340.165ZM342.048 166.851C341.28 166.851 340.635 166.589 340.112 166.066C339.589 165.543 339.328 164.915 339.328 164.183C339.328 163.451 339.589 162.841 340.112 162.352C340.635 161.829 341.28 161.568 342.048 161.568C342.815 161.568 343.46 161.812 343.983 162.3C344.506 162.788 344.767 163.399 344.767 164.131C344.767 164.898 344.506 165.543 343.983 166.066C343.495 166.589 342.85 166.851 342.048 166.851ZM367.601 193.264L367.705 188.504L384.808 172.918H389.359L377.277 184.477L375.185 186.255L367.601 193.264ZM364.672 200.377V161.568H368.385V200.377H364.672ZM385.959 200.377L374.505 186.098L376.911 183.221L390.509 200.377H385.959ZM406.545 200.377V172.918H410.258V200.377H406.545ZM408.428 166.851C407.661 166.851 407.016 166.589 406.493 166.066C405.97 165.543 405.708 164.915 405.708 164.183C405.708 163.451 405.97 162.841 406.493 162.352C407.016 161.829 407.661 161.568 408.428 161.568C409.195 161.568 409.84 161.812 410.363 162.3C410.886 162.788 411.148 163.399 411.148 164.131C411.148 164.898 410.886 165.543 410.363 166.066C409.875 166.589 409.23 166.851 408.428 166.851ZM431.418 200.638C430.651 200.638 429.988 200.36 429.43 199.802C428.907 199.244 428.646 198.564 428.646 197.762C428.646 196.925 428.907 196.245 429.43 195.722C429.988 195.199 430.651 194.937 431.418 194.937C432.185 194.937 432.83 195.199 433.353 195.722C433.911 196.245 434.19 196.925 434.19 197.762C434.19 198.564 433.911 199.244 433.353 199.802C432.83 200.36 432.185 200.638 431.418 200.638Z" fill="#00288D"/>
<path d="M103.943 130.104C84.4017 103.289 78.4209 80.8979 75.1761 27.4592C42.3428 63.2798 11.7602 132.719 1.95152 171.293C1.95152 171.293 -11.9876 151.026 34.641 54.9184C53.5982 15.8459 63.7806 2.47222 81.0602 0C94.6606 5.35827 98.7459 13.3302 98.0587 38.5736C103.943 101.991 131.402 118.336 131.402 118.336C130.3 119.018 146.812 125.664 159.515 122.913C194.358 119.222 216.566 113.692 257.584 101.991C292.058 92.3595 312.694 89.2102 354.345 92.1845C398.007 96.216 418.418 102.645 441.955 120.297C387.567 104.639 357.109 102.319 303.349 111.798C268.998 118.509 250.576 124.786 218.356 137.95C185.246 147.996 171.137 150.944 141.863 151.026C123.596 148.328 115.445 143.474 103.943 130.104Z" fill="#00288D"/>
<circle cx="58.1739" cy="111.802" r="15.0372" fill="#6DD0F6"/>
</g>
</svg>
