<svg width="114" height="69" viewBox="0 0 114 69" fill="none" xmlns="http://www.w3.org/2000/svg">
<path d="M24.986 52.4971L29.3032 43.0531H30.2881L34.6053 52.4971H33.553L29.5865 43.6332H29.9913L26.0248 52.4971H24.986ZM26.6859 49.9742L26.9827 49.1647H32.4737L32.7705 49.9742H26.6859ZM41.4593 52.5645C40.8567 52.5645 40.3306 52.4521 39.8808 52.2272C39.4311 52.0024 39.0804 51.6651 38.8285 51.2154C38.5857 50.7657 38.4643 50.2035 38.4643 49.529V45.4141H39.4221V49.421C39.4221 50.1766 39.6065 50.7477 39.9753 51.1344C40.353 51.5122 40.8792 51.7011 41.5538 51.7011C42.0485 51.7011 42.4757 51.6021 42.8355 51.4043C43.2042 51.1974 43.483 50.9006 43.6719 50.5138C43.8698 50.1271 43.9687 49.6639 43.9687 49.1242V45.4141H44.9266V52.4971H44.0092V50.5543L44.1576 50.9051C43.9328 51.4268 43.582 51.836 43.1053 52.1328C42.6376 52.4206 42.0889 52.5645 41.4593 52.5645ZM52.5341 52.5645C51.8685 52.5645 51.3558 52.3846 50.996 52.0249C50.6363 51.6651 50.4564 51.1569 50.4564 50.5003V43.8491H51.4143V50.4464C51.4143 50.8601 51.5177 51.1794 51.7246 51.4043C51.9404 51.6291 52.2462 51.7416 52.642 51.7416C53.0647 51.7416 53.4155 51.6201 53.6943 51.3773L54.0316 52.0653C53.8427 52.2362 53.6134 52.3622 53.3435 52.4431C53.0827 52.5241 52.8129 52.5645 52.5341 52.5645ZM49.1882 46.2101V45.4141H53.5729V46.2101H49.1882ZM62.0893 45.3466C62.6649 45.3466 63.1686 45.4591 63.6003 45.6839C64.0411 45.8998 64.3828 46.2326 64.6257 46.6823C64.8775 47.132 65.0034 47.6986 65.0034 48.3822V52.4971H64.0456V48.4766C64.0456 47.7301 63.8567 47.168 63.4789 46.7902C63.1102 46.4035 62.5885 46.2101 61.9139 46.2101C61.4102 46.2101 60.9695 46.3135 60.5918 46.5204C60.223 46.7183 59.9352 47.0106 59.7283 47.3973C59.5305 47.7751 59.4315 48.2338 59.4315 48.7735V52.4971H58.4736V42.4865H59.4315V47.3569L59.2426 46.9926C59.4675 46.4799 59.8273 46.0797 60.3219 45.7919C60.8166 45.4951 61.4058 45.3466 62.0893 45.3466ZM72.6366 52.4971L69.4526 43.0531H70.478L73.4596 51.9439H72.9469L76.0229 43.0531H76.9403L79.9759 51.9439H79.4902L82.4988 43.0531H83.4567L80.2727 52.4971H79.2204L76.3197 44.065H76.5896L73.6754 52.4971H72.6366ZM87.7436 52.4971V45.4141H88.7014V52.4971H87.7436ZM88.2292 43.8491C88.0314 43.8491 87.865 43.7817 87.7301 43.6467C87.5951 43.5118 87.5277 43.3499 87.5277 43.161C87.5277 42.9722 87.5951 42.8148 87.7301 42.6889C87.865 42.5539 88.0314 42.4865 88.2292 42.4865C88.4271 42.4865 88.5935 42.5494 88.7284 42.6754C88.8633 42.8013 88.9308 42.9587 88.9308 43.1476C88.9308 43.3454 88.8633 43.5118 88.7284 43.6467C88.6025 43.7817 88.4361 43.8491 88.2292 43.8491ZM94.8205 50.6622L94.8475 49.4345L99.2592 45.4141H100.433L97.3164 48.3957L96.7768 48.8544L94.8205 50.6622ZM94.065 52.4971V42.4865H95.0229V52.4971H94.065ZM99.556 52.4971L96.6014 48.8139L97.222 48.0719L100.73 52.4971H99.556ZM104.866 52.4971V45.4141H105.824V52.4971H104.866ZM105.352 43.8491C105.154 43.8491 104.987 43.7817 104.852 43.6467C104.718 43.5118 104.65 43.3499 104.65 43.161C104.65 42.9722 104.718 42.8148 104.852 42.6889C104.987 42.5539 105.154 42.4865 105.352 42.4865C105.55 42.4865 105.716 42.5494 105.851 42.6754C105.986 42.8013 106.053 42.9587 106.053 43.1476C106.053 43.3454 105.986 43.5118 105.851 43.6467C105.725 43.7817 105.559 43.8491 105.352 43.8491ZM111.282 52.5645C111.084 52.5645 110.913 52.4926 110.769 52.3487C110.634 52.2048 110.567 52.0294 110.567 51.8225C110.567 51.6066 110.634 51.4313 110.769 51.2963C110.913 51.1614 111.084 51.094 111.282 51.094C111.48 51.094 111.646 51.1614 111.781 51.2963C111.925 51.4313 111.997 51.6066 111.997 51.8225C111.997 52.0294 111.925 52.2048 111.781 52.3487C111.646 52.4926 111.48 52.5645 111.282 52.5645Z" fill="#00288D"/>
<path d="M26.8115 34.423C21.771 27.5062 20.2283 21.7305 19.3913 7.94624C10.9221 17.186 3.03347 35.0976 0.503386 45.0475C0.503386 45.0475 -3.09214 39.8196 8.93548 15.0292C13.8254 4.95066 16.4519 1.50098 20.9091 0.863281C24.4172 2.24542 25.471 4.30175 25.2938 10.8132C26.8115 27.1714 33.8945 31.3875 33.8945 31.3875C33.6103 31.5635 37.8695 33.2778 41.1461 32.568C50.1337 31.616 55.8622 30.1896 66.4424 27.1714C75.335 24.6869 80.6578 23.8746 91.4014 24.6418C102.664 25.6817 107.929 27.3401 114 31.8934C99.9709 27.8544 92.1146 27.2559 78.2473 29.7011C69.3868 31.4321 64.6349 33.0512 56.3239 36.4467C47.7832 39.038 44.1441 39.7986 36.5928 39.8196C31.881 39.1239 29.7785 37.8717 26.8115 34.423Z" fill="#00288D"/>
<circle cx="15.0067" cy="29.702" r="3.87877" fill="#6DD0F6"/>
</svg>
